<?xml version="1.0" encoding="UTF-8" standalone="no"?>
<!-- Created with Inkscape (http://www.inkscape.org/) -->

<svg
   xmlns:dc="http://purl.org/dc/elements/1.1/"
   xmlns:cc="http://creativecommons.org/ns#"
   xmlns:rdf="http://www.w3.org/1999/02/22-rdf-syntax-ns#"
   xmlns:svg="http://www.w3.org/2000/svg"
   xmlns="http://www.w3.org/2000/svg"
   xmlns:sodipodi="http://sodipodi.sourceforge.net/DTD/sodipodi-0.dtd"
   xmlns:inkscape="http://www.inkscape.org/namespaces/inkscape"
   width="210mm"
   height="297mm"
   viewBox="0 0 210 297"
   version="1.1"
   id="svg8"
   inkscape:version="0.92.3 (2405546, 2018-03-11)"
   sodipodi:docname="Firma.svg">
  <defs
     id="defs2" />
  <sodipodi:namedview
     id="base"
     pagecolor="#ffffff"
     bordercolor="#666666"
     borderopacity="1.0"
     inkscape:pageopacity="0.0"
     inkscape:pageshadow="2"
     inkscape:zoom="0.98994949"
     inkscape:cx="228.03407"
     inkscape:cy="696.74521"
     inkscape:document-units="mm"
     inkscape:current-layer="layer1"
     showgrid="false"
     inkscape:window-width="1920"
     inkscape:window-height="1051"
     inkscape:window-x="-9"
     inkscape:window-y="-9"
     inkscape:window-maximized="1" />
  <metadata
     id="metadata5">
    <rdf:RDF>
      <cc:Work
         rdf:about="">
        <dc:format>image/svg+xml</dc:format>
        <dc:type
           rdf:resource="http://purl.org/dc/dcmitype/StillImage" />
        <dc:title></dc:title>
      </cc:Work>
    </rdf:RDF>
  </metadata>
  <g
     inkscape:label="Capa 1"
     inkscape:groupmode="layer"
     id="layer1">
    <path
       style="fill:#ff7f2a;stroke-width:0.26458332"
       id="path10"
       d="m 27.032778,16.454983 c 1.026107,1.546274 2.210485,2.977859 3.365997,4.428768 1.801537,2.281076 3.23174,4.805037 4.607531,7.355686 1.450483,2.814825 2.414651,5.830895 3.213015,8.88388 0.487291,1.89729 0.668063,3.847626 0.914877,5.784588 0.05567,0.436898 0.414483,3.083456 0.463764,3.447862 0.515575,3.950845 1.136996,7.884379 1.795769,11.813442 0.506688,2.695434 0.78653,5.424733 1.027565,8.154458 0.112705,1.174202 0.159615,2.348309 0.165539,3.526496 0.0029,0.374039 0.0089,0.747787 0.0259,1.121429 0.0058,0.126957 -0.05151,-0.24919 -0.08724,-0.371153 -0.07248,-0.247361 -0.156599,-0.491159 -0.234899,-0.73674 -4.396433,2.561521 -8.792869,5.12304 -13.189305,7.684561 0.158549,-0.141462 0.335495,-0.264678 0.475642,-0.424386 0.20017,-0.228108 0.370329,-0.481394 0.540001,-0.733012 0.850871,-1.261801 1.563521,-2.613018 2.288963,-3.947997 2.228401,-4.067225 4.406826,-8.166062 6.866901,-12.100607 0.572794,-0.916101 1.173845,-1.814227 1.760768,-2.721337 3.214661,-4.769298 6.756889,-9.308113 10.332669,-13.809515 2.450997,-3.090748 4.988391,-6.110083 7.593208,-9.071853 1.910064,-2.241521 4.055753,-4.261064 6.176748,-6.298128 1.033923,-1.09211 2.208189,-2.021223 3.356767,-2.982252 4.608816,-2.666992 9.162385,-5.431828 13.826452,-8.000977 0.126416,-0.06963 0.308748,0.05286 0.400659,0.164131 0.526264,0.637126 0.827918,1.209198 0.71048,2.028906 -0.04205,0.293477 -0.712674,1.765948 -0.77924,1.918036 -0.19852,0.466219 -0.412845,0.926022 -0.595564,1.398658 -0.764365,1.977154 -1.400429,4.006653 -2.147292,5.991044 -0.786987,2.090989 -1.242933,3.172227 -2.09573,5.271391 -1.628362,4.023673 -3.271824,8.044797 -4.819269,12.100693 -1.037966,2.720541 -1.344478,3.682232 -2.295602,6.440294 -0.335359,1.063048 -0.666374,2.12748 -1.006081,3.18915 -1.022003,3.194005 -2.040778,6.383721 -2.938065,9.616051 -0.74743,2.692487 -0.91508,3.477056 -1.569228,6.171144 -0.834104,3.619132 -1.51202,7.277002 -1.889956,10.973601 -0.187116,1.830197 -0.20067,2.485716 -0.294182,4.273172 -0.15993,2.185051 0.113437,4.377148 -0.0058,6.560428 -0.748204,5.807993 -0.02593,1.264942 -13.995211,8.598275 -0.26066,0.13684 -0.53625,-0.24384 -0.810567,-0.35069 -1.512404,-0.5891 -3.062896,-1.00725 -4.630611,-1.41902 -5.106707,-1.205809 -10.330944,-1.922938 -15.565075,-2.273069 -1.048152,-0.07012 -2.098653,-0.09904 -3.147979,-0.148559 -3.769277,-0.101174 -7.590504,0.0053 -11.196687,1.199965 -0.217778,0.113234 -0.445325,0.209389 -0.653334,0.339699 -0.160378,0.10047 -0.611726,0.443325 -0.447222,0.34976 11.766628,-6.692389 17.42837,-10.29032 12.838092,-7.378017 0,0 -14.709782,5.863201 -14.709782,5.863201 v 0 c 4.387388,-3.889301 9.547982,-7.466751 15.315197,-8.601649 3.484848,-0.524978 7.015596,-0.409541 10.520063,-0.135599 6.446999,0.52379 12.873466,1.284639 19.261023,2.308442 1.320573,0.240908 2.633507,0.529201 3.962358,0.719206 0.402275,0.05752 0.80835,0.129707 1.214197,0.109202 0.211135,-0.01066 0.781775,-0.311425 0.601538,-0.200941 -12.648528,7.753459 -17.997911,9.452739 -12.780327,7.767129 0.08961,-0.13716 0.212494,-0.25764 0.268824,-0.411498 0.183476,-0.501137 0.175445,-1.234035 0.210169,-1.732761 0.104426,-1.499844 0.24719,-2.996713 0.398706,-4.492419 0.554043,-5.289439 1.313789,-10.557526 2.61288,-15.722486 0.606411,-2.413513 0.952127,-3.860212 1.629351,-6.265939 0.302311,-1.073907 0.631759,-2.139992 0.944886,-3.210796 0.317386,-1.085381 0.61214,-2.177523 0.94665,-3.257751 0.33052,-1.067342 0.704231,-2.120849 1.048128,-3.183956 0.347948,-1.075639 0.684922,-2.154798 1.027382,-3.2322 0.617522,-1.842505 1.542368,-4.648046 2.215986,-6.475039 0.382628,-1.037762 0.803601,-2.060983 1.202254,-3.092694 1.146066,-2.966034 2.274355,-5.938924 3.409291,-8.909224 0.470866,-1.260504 1.423474,-3.777044 1.868591,-5.093499 0.646602,-1.91235 1.167389,-3.853169 1.691364,-5.800434 0.12313,-0.457594 0.257691,-0.912035 0.386536,-1.368052 0.113805,-0.318365 0.228142,-0.63654 0.341413,-0.955095 0.07463,-0.209881 0.08136,-0.457695 0.222281,-0.630212 0.212585,-0.260256 0.925174,0.544894 0.729528,0.884809 4.413171,-2.571567 8.826344,-5.143135 13.239517,-7.714702 -1.017675,0.666648 0.259559,-0.188042 -0.890587,0.650705 -0.453547,0.33075 -0.854552,0.545818 -1.301621,0.896287 -0.168098,0.131775 -1.521759,1.322656 -1.627616,1.415449 -2.18844,2.048552 -4.46587,4.012259 -6.443924,6.271885 -2.717528,2.998849 -5.440855,5.991728 -7.969269,9.155192 -3.737115,4.504997 -7.55066,8.97019 -10.799744,13.848929 -0.586718,0.886852 -1.19395,1.760474 -1.760161,2.660558 -2.354649,3.743092 -4.329999,7.698618 -6.224619,11.688698 -0.589029,1.293945 -1.191178,2.577296 -1.808121,3.857776 -0.126513,0.262581 -0.250523,0.526405 -0.370247,0.792149 -0.09333,0.207169 -0.07697,0.504704 -0.268846,0.626415 -4.535162,2.876695 -9.205203,5.535027 -13.807805,8.30254 -0.236405,-0.164283 -0.497125,-0.298183 -0.709218,-0.492845 -0.719415,-0.660297 -0.706154,-1.421042 -0.65419,-2.306553 0.01683,-1.194823 0.06862,-2.387404 0.09543,-3.58236 0.02164,-2.758286 -0.123335,-5.512596 -0.474448,-8.250454 -0.542973,-3.936042 -1.277721,-7.841964 -1.861251,-11.771667 -0.02841,-0.158385 -0.570198,-3.17423 -0.608602,-3.407019 -0.308719,-1.871321 -0.492747,-3.76224 -0.885963,-5.619927 -0.225929,-0.999074 -0.398101,-1.830993 -0.686636,-2.816987 -0.579725,-1.981065 -1.350171,-3.913198 -2.258747,-5.764731 -1.355454,-2.468258 -2.841362,-4.859869 -4.713021,-6.977022 -0.659425,-0.813287 -1.323787,-1.622616 -2.008797,-2.414645 -0.214058,-0.2475 -0.89413,-1.024444 -1.167275,-1.28397 -0.141733,-0.134666 -0.3023,-0.248007 -0.45345,-0.37201 0,0 13.527547,-8.289692 13.527547,-8.289692 z"
       inkscape:connector-curvature="0" />
    <path
       style="fill:#ff7f2a;stroke-width:0.26458332"
       id="path12"
       d="m 101.42117,25.344215 c -0.0318,0.244511 -0.0682,0.48847 -0.0954,0.733532 -0.15553,1.39952 -0.069,1.097826 -0.32936,2.687544 -0.37376,2.281713 -0.92396,4.533905 -1.396274,6.79637 -1.32238,6.223635 -2.376453,12.496647 -3.37036,18.779553 -0.872744,6.671929 -2.044084,13.296003 -3.538652,19.855707 -1.033428,4.317005 -2.328979,8.563461 -3.820657,12.742711 -0.547862,1.816283 -1.48399,3.490772 -2.069325,5.290373 -0.09805,5.395553 0.02469,0.542142 -14.370346,6.813912 -0.184171,0.08024 0.167193,-0.365347 0.251066,-0.547891 0.620278,-1.34997 0.93667,-2.402673 1.339797,-3.845867 1.482415,-5.753631 3.094164,-11.471444 4.525065,-17.2383 1.074688,-4.371583 2.209493,-8.731559 3.193884,-13.124968 0.416795,-1.860203 0.79716,-3.728389 1.200303,-5.591598 0.863211,-3.936212 1.654003,-7.888457 2.289929,-11.86793 0.378016,-2.593721 0.642745,-5.202764 1.043482,-7.793122 0.345075,-1.581293 0.640657,-3.187134 1.165681,-4.721318 0.331356,-0.865383 0.713165,-1.710531 1.118896,-2.543537 2.34592,-5.545353 -0.09286,-1.932305 14.000771,-8.970673 0.43048,-0.214984 1.51225,2.729402 1.60273,2.970304 1.20351,3.625916 2.27983,7.292284 3.38229,10.949707 1.47269,5.143973 2.31024,10.428901 3.15694,15.70228 0.72982,4.598418 1.16335,9.235992 1.49569,13.877819 0.15953,2.393362 0.22753,4.791384 0.34205,7.187035 0.0323,0.614069 0.0208,1.230241 0.0942,1.84182 0.0196,0.163349 0.0374,0.5998 0.2225,0.701723 0.008,-0.05005 0.0372,-0.101679 0.0226,-0.150151 -1.73336,-5.761649 -9.45599,4.67042 -13.673482,7.091696 -0.116578,0.06693 0.218109,-0.163026 0.299632,-0.26991 0.132493,-0.173707 0.52587,-0.952613 0.61101,-1.116338 0.12185,-0.25845 0.25703,-0.511026 0.36554,-0.775356 0.5334,-1.299376 0.90795,-2.683489 1.29691,-4.029543 1.41854,-4.909076 -0.44711,1.396812 1.20848,-4.162346 1.93503,-6.067755 3.12955,-12.32191 4.21521,-18.585812 0.16716,-1.135218 0.35084,-2.26813 0.50148,-3.405661 0.135,-1.162989 0.52664,-4.585835 0.69234,-5.833533 0.28111,-2.116788 0.61769,-4.228349 0.94441,-6.33853 0.29313,-2.102202 0.832,-4.157057 1.25491,-6.234584 0.17226,-0.823245 0.32227,-1.642668 0.62815,-2.426718 2.33935,-6.48734 -3.45276,-1.174975 14.83049,-8.606696 0.33132,-0.134672 0.30226,0.648278 0.45339,0.972417 0.13043,0.396741 0.27455,0.789237 0.39127,1.190223 0.8883,3.051722 -0.005,0.407278 1.08826,3.934946 0.94317,3.043065 2.05879,6.028208 3.17609,9.01001 0.46105,1.168405 0.91721,2.33876 1.38317,3.505221 1.17495,2.94129 1.715,4.181382 2.85443,7.13895 1.35494,3.516987 2.59302,7.070519 3.80313,10.639176 1.78524,5.242012 2.94698,10.668468 3.7274,16.143174 0.38488,3.072235 0.62749,6.161759 0.834,9.250732 0.11018,1.008611 0.0936,2.025108 0.14944,3.035491 0,0 -14.06318,7.313245 -14.06318,7.313245 v 0 c -0.11099,-1.098191 0.0935,-2.196217 0.11257,-3.295788 0.12815,-3.140488 0.13715,-6.285944 -0.14951,-9.419746 -0.54816,-5.482267 -1.42035,-10.941515 -2.94846,-16.24398 -0.35873,-1.152175 -0.69913,-2.310222 -1.07619,-3.456527 -1.98375,-6.030722 -4.42614,-11.901313 -6.95951,-17.717905 -1.26163,-2.911747 -2.51869,-5.824336 -3.8007,-8.727093 -0.52314,-1.184516 -0.99375,-2.393529 -1.5672,-3.554524 -0.15691,-0.317666 -0.35157,-0.615243 -0.52736,-0.922866 -3.93208,-3.897756 -0.13059,0.01281 13.58362,-7.569967 0.10146,-0.0561 -0.21558,-0.108654 -0.33147,-0.105335 -0.19253,0.0055 -0.43263,0.213458 -0.5135,0.370917 -0.0598,0.116537 -0.067,0.2533 -0.10052,0.37995 -0.0597,0.206311 -0.13445,0.498988 -0.22993,0.693414 -0.0496,0.100913 -0.13372,0.182806 -0.17983,0.285345 -0.20408,0.45388 -0.22614,0.974425 -0.42576,1.430353 -0.48071,1.492681 0.0746,-0.268121 -0.43126,1.474239 -0.47922,1.650693 -1.0768,3.267393 -1.45061,4.947857 -0.49471,2.164299 -0.99356,4.33062 -1.42183,6.509273 -0.53139,2.703235 -0.57362,3.173286 -1.01111,5.987095 -0.17847,1.147858 -0.35711,2.295692 -0.53567,3.443536 -0.96966,6.175169 -1.98275,12.355727 -3.53988,18.415082 -0.007,0.03053 -0.88473,3.775919 -0.93359,4.002188 -0.34748,1.609087 -0.61734,3.237386 -1.04197,4.829127 -0.15114,0.382598 -0.33559,0.753169 -0.45876,1.145667 -0.0521,0.165899 0.0357,0.416748 -0.11135,0.509604 -6.38019,4.029927 -10.79498,12.463526 -14.664789,7.303886 -0.07766,-0.14578 -0.170087,-0.284604 -0.232968,-0.43734 -0.386829,-0.939591 -0.263292,-2.045282 -0.267605,-3.030998 0.126153,-2.459019 0.182187,-4.920943 0.180885,-7.38323 -0.02971,-4.666689 -0.248957,-9.335666 -0.970187,-13.953249 -0.14536,-0.922104 -0.708528,-4.528134 -0.87453,-5.447194 -0.607245,-3.361989 -1.452414,-6.672466 -2.40143,-9.952775 -1.003035,-3.144306 -0.352803,-1.204545 -1.448485,-4.254701 -0.749634,-2.086827 -1.449951,-4.198128 -2.425425,-6.194687 -0.160748,-0.283403 -0.304784,-0.576959 -0.482243,-0.850207 -0.08264,-0.127246 -0.178961,-0.444347 -0.295026,-0.346623 -0.126471,0.106482 -0.0016,0.556308 0.142452,0.475083 4.51127,-2.544683 8.859713,-5.367808 13.289571,-8.051713 -0.31674,0.339896 -0.17444,0.146286 -0.41471,0.589611 -0.36597,0.873211 -0.81615,1.704785 -1.23422,2.552298 -0.14142,0.276969 -0.43802,0.838293 -0.54175,1.124345 -0.40501,1.116888 -0.61016,2.299274 -0.99652,3.422147 -0.625534,2.590982 -0.844003,5.266288 -1.3202,7.887081 -0.173072,0.937998 -0.453115,2.494058 -0.652232,3.41105 -0.64113,2.952613 -1.442453,5.869996 -2.150158,8.80659 -1.609735,6.282897 -3.1198,12.591331 -4.720254,18.876759 -1.282123,5.588413 -2.779485,11.132444 -3.683732,16.800803 -1.37045,8.807712 -0.36802,4.219244 -15.213701,11.121877 -0.09135,0.04248 0.07037,-0.188804 0.105553,-0.283207 0.396436,-1.105684 0.978739,-2.090995 1.484379,-3.146351 0.184258,-0.384583 0.339045,-0.782627 0.513048,-1.171959 0.194858,-0.435991 0.395671,-0.869294 0.593505,-1.303943 1.877426,-4.1626 3.323358,-8.504457 4.60765,-12.882862 0.267327,-0.998278 0.554255,-1.991513 0.801979,-2.994834 1.367401,-5.538147 2.191985,-11.196836 2.990088,-16.838694 0.912455,-6.206067 1.806646,-12.415047 2.883561,-18.595287 0.134967,-0.81924 0.270105,-1.638451 0.404903,-2.45772 0.376467,-2.288048 0.835959,-4.649507 0.462354,-6.969342 0,0 14.150067,-7.209819 14.150067,-7.209819 z"
       inkscape:connector-curvature="0" />
    <path
       style="fill:#ff7f2a;stroke-width:0.26458332"
       id="path14"
       d="m 158.31418,21.847916 c 0.68064,2.99636 1.56374,5.942089 2.41802,8.892447 1.33788,4.627568 2.79888,9.222512 3.95887,13.899957 0.26685,1.076026 0.50283,2.159473 0.75425,3.239209 1.30937,5.732864 2.18303,11.549726 3.23705,17.331385 0.45559,2.647053 0.92116,5.293757 1.26344,7.95832 0.0868,0.757777 0.049,0.397566 0.11532,1.080431 0,0 -14.0345,7.198956 -14.0345,7.198956 v 0 c 0.029,-0.695796 0.0158,-0.327578 0.0377,-1.104713 0.0275,-2.750886 -0.14083,-5.49888 -0.45521,-8.231901 -0.64617,-5.857574 -1.31819,-11.732022 -2.71442,-17.468109 -0.67647,-2.848287 -0.78247,-3.487489 -1.62663,-6.2796 -1.06738,-3.530446 -2.3519,-6.991887 -3.56137,-10.474531 -0.6366,-1.839241 -1.2682,-3.665622 -1.99363,-5.471485 -0.23596,-0.587373 -0.62699,-1.612318 -0.91745,-2.224572 -0.0908,-0.191471 -0.20332,-0.371898 -0.30499,-0.557845 0,0 13.8235,-7.787949 13.8235,-7.787949 z"
       inkscape:connector-curvature="0" />
    <path
       style="fill:#ff7f2a;stroke-width:0.26458332"
       id="path16"
       d="m 150.45216,20.072391 c 3.23335,1.208426 6.45923,2.428105 9.72138,3.559283 0.8376,0.282064 1.67627,0.560963 2.51279,0.846191 0.8577,0.292446 1.7087,0.604688 2.56984,0.886819 3.33521,1.092686 6.73557,2.001389 10.11128,2.959247 2.85457,0.869045 5.69136,1.810277 8.4601,2.926694 0.84749,0.341728 3.02247,1.317657 3.85713,1.688809 2.94944,1.260208 5.84482,2.670109 8.9369,3.550219 0.76038,0.292012 1.59105,0.355213 2.35795,0.621847 0.52484,0.182473 1.04432,0.46192 1.53914,0.714296 0.66637,0.570553 1.18135,1.263073 1.1543,2.186906 -0.0178,0.606655 -0.28391,1.072181 -0.51511,1.617239 -0.21166,0.32281 -0.41916,0.64839 -0.63499,0.968433 -1.07398,1.592588 -2.13395,3.178455 -3.11147,4.834548 -1.24338,2.106489 -1.58231,2.79363 -2.77308,5.009042 -3.70545,7.131849 -7.72739,14.091295 -11.54364,21.163221 -0.70676,1.340348 -1.41178,2.681619 -2.12029,4.021045 -1.55337,2.93664 -2.57732,4.898525 -4.21155,7.785378 -1.91027,3.37449 -3.95394,6.660795 -6.02602,9.936977 -1.47772,2.259952 -2.99148,4.495864 -4.50912,6.729065 0,0 -13.55985,5.86707 -13.55985,5.86707 v 0 c 1.76375,-2.28163 3.49946,-4.5841 5.16476,-6.93922 1.72081,-2.530177 2.59185,-3.76462 4.24471,-6.392028 3.1398,-4.991055 5.90354,-10.202 8.61366,-15.435077 1.36948,-2.604212 2.72666,-5.214916 4.10561,-7.81413 2.2811,-4.299685 4.63999,-8.562237 6.68907,-12.980474 1.67872,-3.52698 3.35944,-7.075236 5.41117,-10.403544 0.14115,-0.169121 0.28231,-0.338243 0.42346,-0.507362 0.0726,-0.139594 0.12237,-0.293661 0.21776,-0.418782 0.0443,-0.05808 0.14431,-0.05428 0.1877,-0.11303 0.13965,-0.189087 -0.31956,-0.404077 -0.39089,-0.4352 -1.13002,-0.543648 -2.32911,-0.892368 -3.48982,-1.365935 -2.91642,-1.185884 -5.67945,-2.700147 -8.56978,-3.94679 -3.93765,-1.708396 -7.92733,-3.306514 -12.03118,-4.576135 -5.08479,-1.523021 -10.1546,-3.093345 -15.19592,-4.754542 -3.52128,-1.111176 -7.0468,-2.242629 -10.68557,-2.90894 0,0 13.08957,-8.88114 13.08957,-8.88114 z"
       inkscape:connector-curvature="0" />
  </g>
</svg>
